<svg xmlns="http://www.w3.org/2000/svg" version="1.1" xmlns:xlink="http://www.w3.org/1999/xlink" width="120" height="120"><svg xmlns="http://www.w3.org/2000/svg" xmlns:xlink="http://www.w3.org/1999/xlink" width="120" zoomAndPan="magnify" viewBox="0 0 90 89.999999" height="120" preserveAspectRatio="xMidYMid meet" version="1.0"><defs><g></g><clipPath id="SvgjsClipPath1006"><path d="M 63.175781 2.261719 L 76.675781 2.261719 L 76.675781 61.5 L 63.175781 61.5 Z M 63.175781 2.261719 " clip-rule="nonzero"></path></clipPath><clipPath id="SvgjsClipPath1005"><path d="M 28 11.59375 L 59.363281 11.59375 L 59.363281 43 L 28 43 Z M 28 11.59375 " clip-rule="nonzero"></path></clipPath><clipPath id="SvgjsClipPath1004"><path d="M 13.613281 41 L 29 41 L 29 57.214844 L 13.613281 57.214844 Z M 13.613281 41 " clip-rule="nonzero"></path></clipPath></defs><g clip-path="url(#b567f8177a)"><path fill="#000000" d="M 68.679688 30.882812 C 68.679688 30.753906 68.679688 30.625 68.675781 30.5 C 68.648438 29.082031 68.167969 27.523438 67.207031 26.449219 C 65.359375 24.390625 63.4375 23.167969 63.605469 20.050781 L 64.523438 2.871094 C 64.542969 2.523438 64.832031 2.25 65.183594 2.25 C 65.546875 2.25 65.84375 2.542969 65.84375 2.90625 L 65.84375 21.332031 C 65.84375 21.820312 66.269531 22.210938 66.773438 22.144531 C 67.1875 22.09375 67.488281 21.71875 67.488281 21.304688 L 67.488281 3.121094 C 67.488281 2.640625 67.878906 2.25 68.359375 2.25 C 68.84375 2.25 69.234375 2.640625 69.234375 3.121094 L 69.234375 21.332031 C 69.234375 21.785156 69.601562 22.152344 70.054688 22.152344 C 70.507812 22.152344 70.878906 21.785156 70.878906 21.332031 L 70.878906 3.121094 C 70.878906 2.640625 71.265625 2.25 71.75 2.25 C 72.230469 2.25 72.621094 2.640625 72.621094 3.121094 L 72.621094 21.304688 C 72.621094 21.71875 72.921875 22.09375 73.335938 22.144531 C 73.839844 22.210938 74.265625 21.820312 74.265625 21.332031 L 74.265625 2.90625 C 74.265625 2.542969 74.5625 2.25 74.925781 2.25 C 75.277344 2.25 75.566406 2.523438 75.585938 2.871094 L 76.503906 20.050781 C 76.671875 23.167969 74.75 24.390625 72.902344 26.449219 C 71.941406 27.523438 71.460938 29.082031 71.433594 30.5 C 71.429688 30.625 71.429688 30.753906 71.429688 30.882812 C 71.429688 30.941406 71.425781 31 71.425781 31.054688 C 71.335938 39.175781 72.546875 54.488281 72.765625 59.710938 C 72.765625 59.738281 72.765625 59.761719 72.765625 59.789062 C 72.765625 60.734375 70.929688 61.507812 70.054688 61.507812 C 69.179688 61.507812 67.34375 60.734375 67.34375 59.789062 C 67.34375 59.761719 67.34375 59.738281 67.34375 59.710938 C 67.5625 54.488281 68.773438 39.175781 68.683594 31.054688 C 68.683594 31 68.679688 30.941406 68.679688 30.882812 " fill-opacity="1" fill-rule="nonzero"></path></g><g clip-path="url(#5a27e42e86)"><path fill="#000000" d="M 44.09375 42.382812 C 52.503906 42.382812 59.347656 35.476562 59.347656 26.988281 C 59.347656 18.496094 52.503906 11.589844 44.09375 11.589844 C 35.679688 11.589844 28.839844 18.496094 28.839844 26.988281 C 28.839844 35.476562 35.683594 42.382812 44.09375 42.382812 Z M 44.09375 14.125 C 44.929688 14.125 45.757812 14.207031 46.578125 14.371094 C 47.402344 14.535156 48.199219 14.78125 48.96875 15.101562 C 49.742188 15.425781 50.476562 15.820312 51.175781 16.292969 C 51.871094 16.761719 52.515625 17.292969 53.105469 17.890625 C 53.695312 18.488281 54.226562 19.136719 54.691406 19.839844 C 55.15625 20.542969 55.546875 21.285156 55.867188 22.0625 C 56.1875 22.84375 56.429688 23.648438 56.59375 24.476562 C 56.757812 25.304688 56.839844 26.140625 56.839844 26.988281 C 56.839844 27.832031 56.757812 28.667969 56.59375 29.496094 C 56.429688 30.324219 56.1875 31.128906 55.867188 31.910156 C 55.546875 32.6875 55.15625 33.429688 54.691406 34.132812 C 54.226562 34.835938 53.695312 35.484375 53.105469 36.082031 C 52.515625 36.679688 51.871094 37.210938 51.175781 37.683594 C 50.476562 38.152344 49.742188 38.546875 48.96875 38.871094 C 48.199219 39.195312 47.402344 39.4375 46.578125 39.601562 C 45.757812 39.765625 44.929688 39.851562 44.09375 39.851562 C 43.257812 39.851562 42.425781 39.765625 41.605469 39.601562 C 40.785156 39.4375 39.988281 39.195312 39.214844 38.871094 C 38.441406 38.546875 37.707031 38.152344 37.011719 37.683594 C 36.316406 37.210938 35.671875 36.679688 35.082031 36.082031 C 34.488281 35.484375 33.960938 34.835938 33.496094 34.132812 C 33.03125 33.429688 32.636719 32.6875 32.316406 31.910156 C 31.996094 31.128906 31.757812 30.324219 31.59375 29.496094 C 31.429688 28.667969 31.347656 27.832031 31.347656 26.988281 C 31.347656 26.140625 31.429688 25.304688 31.59375 24.476562 C 31.757812 23.652344 32 22.847656 32.324219 22.066406 C 32.644531 21.289062 33.035156 20.546875 33.5 19.84375 C 33.964844 19.144531 34.496094 18.492188 35.085938 17.894531 C 35.675781 17.300781 36.320312 16.765625 37.015625 16.296875 C 37.710938 15.828125 38.445312 15.433594 39.21875 15.109375 C 39.992188 14.785156 40.789062 14.539062 41.609375 14.375 C 42.429688 14.210938 43.257812 14.125 44.09375 14.125 Z M 44.09375 14.125 " fill-opacity="1" fill-rule="nonzero"></path></g><path fill="#000000" d="M 33.078125 44.046875 C 33.363281 44.046875 33.621094 43.964844 33.859375 43.808594 C 34.09375 43.648438 34.265625 43.4375 34.375 43.171875 C 34.484375 42.910156 34.511719 42.636719 34.457031 42.355469 C 34.402344 42.074219 34.277344 41.832031 34.074219 41.628906 L 30.191406 37.679688 C 30.0625 37.53125 29.910156 37.417969 29.738281 37.332031 C 29.5625 37.25 29.378906 37.207031 29.183594 37.199219 C 28.992188 37.191406 28.804688 37.222656 28.625 37.292969 C 28.445312 37.367188 28.285156 37.46875 28.148438 37.605469 C 28.011719 37.746094 27.90625 37.902344 27.832031 38.085938 C 27.761719 38.265625 27.726562 38.453125 27.730469 38.648438 C 27.734375 38.84375 27.777344 39.03125 27.859375 39.207031 C 27.941406 39.382812 28.050781 39.539062 28.195312 39.667969 L 32.082031 43.621094 C 32.355469 43.902344 32.6875 44.042969 33.078125 44.046875 Z M 33.078125 44.046875 " fill-opacity="1" fill-rule="nonzero"></path><g clip-path="url(#0de26d8af4)"><path fill="#000000" d="M 16.21875 57.34375 C 16.898438 57.34375 17.472656 57.101562 17.945312 56.609375 L 28.28125 45.925781 C 28.503906 45.695312 28.675781 45.433594 28.792969 45.132812 C 28.910156 44.832031 28.96875 44.523438 28.964844 44.199219 C 28.960938 43.878906 28.898438 43.570312 28.773438 43.273438 C 28.644531 42.976562 28.46875 42.714844 28.242188 42.488281 C 28.011719 42.265625 27.75 42.089844 27.453125 41.972656 C 27.15625 41.851562 26.847656 41.792969 26.527344 41.796875 C 26.210938 41.800781 25.902344 41.867188 25.609375 41.992188 C 25.316406 42.121094 25.058594 42.300781 24.832031 42.53125 L 14.496094 53.214844 C 14.160156 53.5625 13.945312 53.976562 13.855469 54.457031 C 13.761719 54.9375 13.8125 55.40625 14 55.855469 C 14.1875 56.304688 14.484375 56.667969 14.886719 56.9375 C 15.292969 57.207031 15.734375 57.34375 16.21875 57.34375 Z M 16.21875 57.34375 " fill-opacity="1" fill-rule="nonzero"></path></g><path fill="#000000" d="M 44.117188 37.828125 C 46.082031 37.828125 48.679688 37.261719 51.460938 35.101562 C 53.902344 33.210938 55.027344 30.296875 54.714844 26.679688 C 54.566406 25.007812 54.171875 23.394531 53.53125 21.84375 C 53.445312 21.652344 53.304688 21.519531 53.113281 21.445312 C 52.917969 21.375 52.726562 21.378906 52.539062 21.464844 C 52.351562 21.550781 52.21875 21.691406 52.144531 21.886719 C 52.070312 22.078125 52.074219 22.273438 52.15625 22.464844 C 52.730469 23.871094 53.082031 25.332031 53.21875 26.847656 C 53.476562 29.945312 52.574219 32.316406 50.542969 33.894531 C 45.523438 37.792969 41.234375 35.78125 41.191406 35.757812 C 41.003906 35.664062 40.808594 35.648438 40.609375 35.714844 C 40.410156 35.785156 40.265625 35.914062 40.171875 36.105469 C 40.082031 36.296875 40.070312 36.492188 40.144531 36.695312 C 40.214844 36.894531 40.347656 37.039062 40.539062 37.128906 C 40.644531 37.183594 42.023438 37.828125 44.117188 37.828125 Z M 44.117188 37.828125 " fill-opacity="1" fill-rule="nonzero"></path><g fill="#f14237" fill-opacity="1"><g transform="translate(5.134441, 79.599996)"><g><path d="M 8.09375 -11.21875 L 11.03125 -11.21875 L 6.96875 -3.578125 L 6.96875 0 L 4.046875 0 L 4.046875 -3.5 L -0.078125 -11.21875 L 2.84375 -11.21875 L 5.5 -6.40625 Z M 8.09375 -11.21875 "></path></g></g></g><g fill="#f14237" fill-opacity="1"><g transform="translate(16.075817, 79.599996)"><g><path d="M 4.984375 -8.765625 C 6.179688 -8.765625 7.109375 -8.488281 7.765625 -7.9375 C 8.429688 -7.394531 8.769531 -6.625 8.78125 -5.625 L 8.78125 0 L 5.984375 0 L 5.984375 -0.96875 C 5.410156 -0.238281 4.539062 0.125 3.375 0.125 C 2.457031 0.125 1.734375 -0.117188 1.203125 -0.609375 C 0.679688 -1.109375 0.421875 -1.765625 0.421875 -2.578125 C 0.421875 -3.398438 0.703125 -4.039062 1.265625 -4.5 C 1.835938 -4.957031 2.660156 -5.191406 3.734375 -5.203125 L 5.984375 -5.203125 L 5.984375 -5.296875 C 5.984375 -5.710938 5.84375 -6.03125 5.5625 -6.25 C 5.28125 -6.476562 4.875 -6.59375 4.34375 -6.59375 C 3.976562 -6.59375 3.566406 -6.53125 3.109375 -6.40625 C 2.660156 -6.289062 2.207031 -6.125 1.75 -5.90625 L 0.953125 -7.828125 C 1.660156 -8.140625 2.335938 -8.375 2.984375 -8.53125 C 3.628906 -8.6875 4.296875 -8.765625 4.984375 -8.765625 Z M 4.25 -1.8125 C 4.675781 -1.8125 5.050781 -1.914062 5.375 -2.125 C 5.695312 -2.332031 5.898438 -2.597656 5.984375 -2.921875 L 5.984375 -3.6875 L 4.28125 -3.6875 C 3.488281 -3.6875 3.09375 -3.382812 3.09375 -2.78125 C 3.09375 -2.488281 3.195312 -2.253906 3.40625 -2.078125 C 3.613281 -1.898438 3.894531 -1.8125 4.25 -1.8125 Z M 4.25 -1.8125 "></path></g></g></g><g fill="#f14237" fill-opacity="1"><g transform="translate(25.689506, 79.599996)"><g><path d="M 6.796875 -8.765625 C 7.742188 -8.765625 8.503906 -8.460938 9.078125 -7.859375 C 9.648438 -7.265625 9.9375 -6.460938 9.9375 -5.453125 L 9.9375 0 L 7.109375 0 L 7.109375 -4.640625 C 7.109375 -5.128906 6.972656 -5.515625 6.703125 -5.796875 C 6.429688 -6.078125 6.070312 -6.21875 5.625 -6.21875 C 5.15625 -6.207031 4.769531 -6.050781 4.46875 -5.75 C 4.164062 -5.457031 3.988281 -5.066406 3.9375 -4.578125 L 3.9375 0 L 1.09375 0 L 1.09375 -8.65625 L 3.9375 -8.65625 L 3.9375 -7.25 C 4.25 -7.75 4.644531 -8.125 5.125 -8.375 C 5.613281 -8.632812 6.171875 -8.765625 6.796875 -8.765625 Z M 6.796875 -8.765625 "></path></g></g></g><g fill="#f14237" fill-opacity="1"><g transform="translate(36.470915, 79.599996)"><g><path d="M 6.859375 -5.921875 C 5.742188 -6.503906 4.828125 -6.796875 4.109375 -6.796875 C 3.867188 -6.796875 3.671875 -6.75 3.515625 -6.65625 C 3.367188 -6.570312 3.296875 -6.4375 3.296875 -6.25 C 3.296875 -6.0625 3.410156 -5.90625 3.640625 -5.78125 C 3.878906 -5.664062 4.253906 -5.539062 4.765625 -5.40625 C 5.390625 -5.226562 5.90625 -5.050781 6.3125 -4.875 C 6.71875 -4.695312 7.070312 -4.425781 7.375 -4.0625 C 7.675781 -3.707031 7.828125 -3.242188 7.828125 -2.671875 C 7.828125 -1.796875 7.488281 -1.109375 6.8125 -0.609375 C 6.132812 -0.117188 5.25 0.125 4.15625 0.125 C 3.425781 0.125 2.722656 0.0195312 2.046875 -0.1875 C 1.378906 -0.394531 0.78125 -0.703125 0.25 -1.109375 L 1.15625 -2.9375 C 1.644531 -2.601562 2.15625 -2.34375 2.6875 -2.15625 C 3.226562 -1.96875 3.738281 -1.875 4.21875 -1.875 C 4.5 -1.875 4.722656 -1.914062 4.890625 -2 C 5.054688 -2.09375 5.140625 -2.226562 5.140625 -2.40625 C 5.140625 -2.613281 5.019531 -2.773438 4.78125 -2.890625 C 4.539062 -3.015625 4.160156 -3.144531 3.640625 -3.28125 C 3.035156 -3.457031 2.535156 -3.632812 2.140625 -3.8125 C 1.742188 -3.988281 1.398438 -4.253906 1.109375 -4.609375 C 0.816406 -4.960938 0.671875 -5.421875 0.671875 -5.984375 C 0.671875 -6.859375 1 -7.539062 1.65625 -8.03125 C 2.320312 -8.53125 3.175781 -8.78125 4.21875 -8.78125 C 4.851562 -8.78125 5.476562 -8.691406 6.09375 -8.515625 C 6.707031 -8.347656 7.285156 -8.101562 7.828125 -7.78125 Z M 6.859375 -5.921875 "></path></g></g></g><g fill="#f14237" fill-opacity="1"><g transform="translate(44.743814, 79.599996)"><g><path d="M 1.46875 0 L 1.46875 -11.203125 L 8.984375 -11.203125 L 8.96875 -9.5 L 3.359375 -9.5 L 3.359375 -6.265625 L 8.453125 -6.265625 L 8.453125 -4.59375 L 3.359375 -4.59375 L 3.359375 0 Z M 1.46875 0 "></path></g></g></g><g fill="#f14237" fill-opacity="1"><g transform="translate(53.941602, 79.599996)"><g><path d="M 5.015625 -8.578125 C 5.867188 -8.578125 6.628906 -8.394531 7.296875 -8.03125 C 7.972656 -7.664062 8.5 -7.15625 8.875 -6.5 C 9.25 -5.851562 9.4375 -5.109375 9.4375 -4.265625 C 9.4375 -3.410156 9.25 -2.65625 8.875 -2 C 8.5 -1.351562 7.972656 -0.847656 7.296875 -0.484375 C 6.628906 -0.117188 5.867188 0.0625 5.015625 0.0625 C 4.140625 0.0625 3.363281 -0.117188 2.6875 -0.484375 C 2.019531 -0.847656 1.5 -1.351562 1.125 -2 C 0.75 -2.65625 0.5625 -3.410156 0.5625 -4.265625 C 0.5625 -5.109375 0.75 -5.851562 1.125 -6.5 C 1.5 -7.15625 2.019531 -7.664062 2.6875 -8.03125 C 3.363281 -8.394531 4.140625 -8.578125 5.015625 -8.578125 Z M 5.015625 -7.015625 C 4.242188 -7.015625 3.613281 -6.753906 3.125 -6.234375 C 2.644531 -5.710938 2.40625 -5.046875 2.40625 -4.234375 C 2.40625 -3.421875 2.644531 -2.753906 3.125 -2.234375 C 3.613281 -1.722656 4.242188 -1.46875 5.015625 -1.46875 C 5.773438 -1.46875 6.394531 -1.722656 6.875 -2.234375 C 7.351562 -2.753906 7.59375 -3.421875 7.59375 -4.234375 C 7.59375 -5.046875 7.347656 -5.710938 6.859375 -6.234375 C 6.378906 -6.753906 5.765625 -7.015625 5.015625 -7.015625 Z M 5.015625 -7.015625 "></path></g></g></g><g fill="#f14237" fill-opacity="1"><g transform="translate(63.939206, 79.599996)"><g><path d="M 5.015625 -8.578125 C 5.867188 -8.578125 6.628906 -8.394531 7.296875 -8.03125 C 7.972656 -7.664062 8.5 -7.15625 8.875 -6.5 C 9.25 -5.851562 9.4375 -5.109375 9.4375 -4.265625 C 9.4375 -3.410156 9.25 -2.65625 8.875 -2 C 8.5 -1.351562 7.972656 -0.847656 7.296875 -0.484375 C 6.628906 -0.117188 5.867188 0.0625 5.015625 0.0625 C 4.140625 0.0625 3.363281 -0.117188 2.6875 -0.484375 C 2.019531 -0.847656 1.5 -1.351562 1.125 -2 C 0.75 -2.65625 0.5625 -3.410156 0.5625 -4.265625 C 0.5625 -5.109375 0.75 -5.851562 1.125 -6.5 C 1.5 -7.15625 2.019531 -7.664062 2.6875 -8.03125 C 3.363281 -8.394531 4.140625 -8.578125 5.015625 -8.578125 Z M 5.015625 -7.015625 C 4.242188 -7.015625 3.613281 -6.753906 3.125 -6.234375 C 2.644531 -5.710938 2.40625 -5.046875 2.40625 -4.234375 C 2.40625 -3.421875 2.644531 -2.753906 3.125 -2.234375 C 3.613281 -1.722656 4.242188 -1.46875 5.015625 -1.46875 C 5.773438 -1.46875 6.394531 -1.722656 6.875 -2.234375 C 7.351562 -2.753906 7.59375 -3.421875 7.59375 -4.234375 C 7.59375 -5.046875 7.347656 -5.710938 6.859375 -6.234375 C 6.378906 -6.753906 5.765625 -7.015625 5.015625 -7.015625 Z M 5.015625 -7.015625 "></path></g></g></g><g fill="#f14237" fill-opacity="1"><g transform="translate(73.93681, 79.599996)"><g><path d="M 7.625 -11.875 L 9.46875 -11.875 L 9.46875 0 L 7.625 0 L 7.625 -1.453125 C 7.320312 -0.953125 6.914062 -0.570312 6.40625 -0.3125 C 5.894531 -0.0507812 5.304688 0.078125 4.640625 0.078125 C 3.828125 0.078125 3.113281 -0.101562 2.5 -0.46875 C 1.882812 -0.84375 1.40625 -1.359375 1.0625 -2.015625 C 0.726562 -2.679688 0.5625 -3.4375 0.5625 -4.28125 C 0.5625 -5.125 0.726562 -5.867188 1.0625 -6.515625 C 1.40625 -7.171875 1.882812 -7.679688 2.5 -8.046875 C 3.113281 -8.410156 3.816406 -8.59375 4.609375 -8.59375 C 5.285156 -8.59375 5.878906 -8.457031 6.390625 -8.1875 C 6.898438 -7.925781 7.3125 -7.546875 7.625 -7.046875 Z M 5.03125 -1.453125 C 5.789062 -1.453125 6.410156 -1.710938 6.890625 -2.234375 C 7.378906 -2.753906 7.625 -3.414062 7.625 -4.21875 C 7.625 -5.039062 7.378906 -5.710938 6.890625 -6.234375 C 6.410156 -6.765625 5.789062 -7.03125 5.03125 -7.03125 C 4.257812 -7.03125 3.628906 -6.765625 3.140625 -6.234375 C 2.660156 -5.710938 2.414062 -5.039062 2.40625 -4.21875 C 2.414062 -3.414062 2.660156 -2.753906 3.140625 -2.234375 C 3.628906 -1.710938 4.257812 -1.453125 5.03125 -1.453125 Z M 5.03125 -1.453125 "></path></g></g></g></svg><style>@media (prefers-color-scheme: light) { :root { filter: none; } }
@media (prefers-color-scheme: dark) { :root { filter: none; } }
</style></svg>